<svg viewBox="0 0 143 32" fill="none" xmlns="http://www.w3.org/2000/svg"><defs/><g clip-path="url(#clip0)" fill="#0063A3"><path d="M37.072 27.882V8.042H29.76V3.587h20.022v4.48h-7.36v19.84l-5.35-.025z"/><path d="M45.408 27.882V10.477h5.286v2.829h.032c.96-1.479 2.628-3.284 5.91-3.284h.164v4.698a15.75 15.75 0 00-1.443-.1 5.846 5.846 0 00-4.663 2.398v10.88l-5.286-.016zM58.47 8V3.75h5.319V8H58.47zm.036 19.894V10.381h5.25v17.5l-5.25.013zM65.824 27.882V10.38h5.283v2.758c1.053-1.379 2.989-3.117 5.76-3.117 2.922 0 4.301 1.213 4.8 3.117 1.05-1.344 3.021-3.117 5.76-3.117 3.546 0 5.12 2.24 5.12 5.35v12.51h-5.286V16.784c0-1.574-.362-2.397-1.904-2.397-1.312 0-2.365.723-3.52 1.741v11.754H76.56V16.784c0-1.574-.362-2.397-1.92-2.397-1.312 0-2.362.723-3.546 1.741v11.754h-5.27zM99.84 25.811v2.07h-5.296V3.588h5.296v9.488c1.149-1.6 2.79-3.053 5.382-3.053 3.975 0 6.72 3.053 6.72 9.092 0 6.038-2.787 9.046-6.793 9.046-2.365 0-4.007-.87-5.309-2.349zm6.829-6.662c0-2.922-1.018-4.762-3.383-4.762-1.347 0-2.56.823-3.446 1.709v6.467c1.149 1.082 2.099 1.6 3.52 1.6 2.182.007 3.299-1.83 3.299-5.014h.01zM113.581 27.882V3.587h5.251v24.295h-5.251zM120.47 19.149c0-6.797 5.188-9.127 8.797-9.127 3.61 0 8.045 1.818 8.045 9.75v.788h-11.59c.265 2.88 1.872 4.003 4.073 4.003a8.049 8.049 0 005.187-2.099l2.036 3.152c-2.036 1.74-4.564 2.627-7.616 2.627-4.567 0-8.932-2.323-8.932-9.094zm12.116-1.709c-.263-2.46-1.38-3.645-3.351-3.645-1.641 0-3.053 1.085-3.446 3.645h6.797zM138.31 25.92a1.974 1.974 0 01.58-1.423 1.987 1.987 0 011.424-.58 2.005 2.005 0 011.85 1.236 2.002 2.002 0 11-3.854.767zm3.642 0a1.643 1.643 0 00-1.985-1.58 1.644 1.644 0 00.347 3.254 1.635 1.635 0 001.638-1.674zm-2.416-1.14h.819c.519 0 .819.225.819.673a.587.587 0 01-.428.62l.473.9h-.457l-.442-.839h-.346v.839h-.438V24.78zm.794 1.018c.268 0 .416-.086.416-.32 0-.233-.148-.32-.426-.32h-.346v.64h.356zM1.98 24.451V32l6.567-3.789a12.512 12.512 0 01-6.566-3.76zM8.5 3.757L1.98 0v7.504A12.586 12.586 0 018.5 3.757zM29.696 16l-6.563-3.789c.776 2.472.77 5.123-.02 7.59L29.697 16zM6.304 5.734c.94-.208 2.896 0 3.93.285a5.978 5.978 0 013.318-1.104 13.158 13.158 0 00-7.248.82zM18.813 19.469a16.982 16.982 0 00-1.027-4.202c-2.24 1.018-5.03.362-6.89-1.248a30.698 30.698 0 00-3.658 4.643c3.152 2.57 8.336 3.245 11.575.807zM5.514 18.909C2.736 16.06 1.766 11.91 2.656 8.72a11.2 11.2 0 00.64 15.19 20.287 20.287 0 012.218-5.001zM17.28 14.06a15.098 15.098 0 00-2.24-3.449c-1.13.744-2.2 1.575-3.2 2.487 1.683 1.398 3.885 1.673 5.44.963zM15.19 8.87a11.624 11.624 0 012.439-1.353c-1.78-1.799-4.64-1.75-5.885-.96A11.895 11.895 0 0115.19 8.87z"/><path d="M6.528 19.84C5.146 22.23 4.64 24 4.454 24.918a11.2 11.2 0 0013.818-.278 9.598 9.598 0 00.64-3.626c-3.827 2.279-9.1 1.408-12.384-1.174zM18.368 13.264c1.226-1.28.98-3.469.048-4.73a9.473 9.473 0 00-2.282 1.338 16.872 16.872 0 012.234 3.392zM20.48 10.512a4.512 4.512 0 01-1.549 4.029 18.36 18.36 0 011.066 3.763c1.68-2.182 1.629-5.3.483-7.792zM10.931 12.128a26.606 26.606 0 013.149-2.493 10.614 10.614 0 00-3.462-2.109c-1.044 1.399-.724 3.204.313 4.602zM20.198 20.06c.04.95-.006 1.901-.137 2.842a11.319 11.319 0 002.339-7.84 8.583 8.583 0 01-2.202 4.999zM9.312 7.13a9.094 9.094 0 00-4.448.028c-2.205 3.127-1.18 7.706 1.386 10.56a32.26 32.26 0 013.728-4.665C8.672 11.43 8.154 8.925 9.312 7.13z"/></g><defs><clipPath id="clip0"><path fill="#fff" d="M0 0h142.298v32H0z"/></clipPath></defs></svg>